HIERARCHY
ROOT SimulationBone
{
	OFFSET 0.000000 0.000000 0.000000
	CHANNELS 6 Xposition Yposition Zposition Zrotation Yrotation Xrotation 
	JOINT Hips
	{
		OFFSET 0.000000 0.000000 0.000000
		CHANNELS 6 Xposition Yposition Zposition Zrotation Yrotation Xrotation 
		JOINT RightUpLeg
		{
			OFFSET 0.103457 1.857818 10.548502
			CHANNELS 3 Zrotation Yrotation Xrotation
			JOINT RightLeg
			{
				OFFSET 43.500000 -0.000011 -0.000004
				CHANNELS 3 Zrotation Yrotation Xrotation
				JOINT RightFoot
				{
					OFFSET 42.372192 -0.000004 -0.000008
					CHANNELS 3 Zrotation Yrotation Xrotation
					JOINT RightToe
					{
						OFFSET 17.300014 0.000006 0.000001
						CHANNELS 3 Zrotation Yrotation Xrotation
						End Site
						{
							OFFSET 0.000000 0.000000 0.000000
						}
					}
				}
			}
		}
		JOINT LeftUpLeg
		{
			OFFSET 0.103457 1.857817 -10.548505
			CHANNELS 3 Zrotation Yrotation Xrotation
			JOINT LeftLeg
			{
				OFFSET 43.500046 -0.000004 0.000011
				CHANNELS 3 Zrotation Yrotation Xrotation
				JOINT LeftFoot
				{
					OFFSET 42.372257 0.000000 0.000015
					CHANNELS 3 Zrotation Yrotation Xrotation
					JOINT LeftToe
					{
						OFFSET 17.300003 -0.000000 0.000002
						CHANNELS 3 Zrotation Yrotation Xrotation
						End Site
						{
							OFFSET 0.000000 0.000000 0.000000
						}
					}
				}
			}
		}
		JOINT Spine
		{
			OFFSET 6.901961 -2.603721 -0.000001
			CHANNELS 3 Zrotation Yrotation Xrotation
			JOINT Spine1
			{
				OFFSET 12.588108 0.000002 -0.000001
				CHANNELS 3 Zrotation Yrotation Xrotation
				JOINT Spine2
				{
					OFFSET 12.343199 -0.000020 0.000006
					CHANNELS 3 Zrotation Yrotation Xrotation
					JOINT Neck
					{
						OFFSET 25.832905 0.000017 0.000000
						CHANNELS 3 Zrotation Yrotation Xrotation
						JOINT Head
						{
							OFFSET 11.766604 -0.000006 0.000004
							CHANNELS 3 Zrotation Yrotation Xrotation
							End Site
							{
								OFFSET 0.000000 0.000000 0.000000
							}
						}
					}
					JOINT RightShoulder
					{
						OFFSET 19.745903 -1.480350 6.000100
						CHANNELS 3 Zrotation Yrotation Xrotation
						JOINT RightArm
						{
							OFFSET 11.284130 -0.000016 -0.000016
							CHANNELS 3 Zrotation Yrotation Xrotation
							JOINT RightForeArm
							{
								OFFSET 33.000046 0.000004 0.000031
								CHANNELS 3 Zrotation Yrotation Xrotation
								JOINT RightHand
								{
									OFFSET 25.199999 0.000027 0.000001
									CHANNELS 3 Zrotation Yrotation Xrotation
									End Site
									{
										OFFSET 0.000000 0.000000 0.000000
									}
								}
							}
						}
					}
					JOINT LeftShoulder
					{
						OFFSET 19.746094 -1.480375 -6.000080
						CHANNELS 3 Zrotation Yrotation Xrotation
						JOINT LeftArm
						{
							OFFSET 11.284131 -0.000016 -0.000017
							CHANNELS 3 Zrotation Yrotation Xrotation
							JOINT LeftForeArm
							{
								OFFSET 33.000095 0.000009 0.000020
								CHANNELS 3 Zrotation Yrotation Xrotation
								JOINT LeftHand
								{
									OFFSET 25.199789 0.000132 0.000423
									CHANNELS 3 Zrotation Yrotation Xrotation
									End Site
									{
										OFFSET 0.000000 0.000000 0.000000
									}
								}
							}
						}
					}
				}
			}
		}
	}
}
MOTION
Frames: 9
Frame Time: 0.016667
187.940801 0.000000 543.611528 180.000000 86.166825 180.000000 -6.354873 78.666786 -0.139137 87.230378 3.880773 179.495897 154.573778 -10.280394 -179.432034 -109.094103 5.248107 -9.490039 75.505070 5.777386 -2.519181 21.454555 0.003104 0.000018 167.728218 -16.744904 -174.158240 -49.296579 3.375938 5.201760 106.275092 -3.566144 -13.033480 21.454553 -0.003090 -0.000001 10.266322 1.828669 -1.134702 10.490926 3.752662 -2.099835 10.172329 3.739776 -2.122486 0.298367 10.424261 7.505593 -20.823707 -16.166923 16.131228 -170.649202 -70.731407 -10.995482 14.360298 59.884897 21.962395 -94.274873 -2.856832 2.737814 1.318841 3.685278 54.479220 -170.874502 73.523219 10.811033 10.773538 -55.999244 -25.650180 -95.293542 2.994839 -2.749773 -3.843487 4.850557 -30.375527 
187.099350 0.000000 541.633949 180.000000 87.670183 180.000000 -6.409074 79.207072 -0.129255 86.968787 3.719967 179.617185 151.266538 -9.163131 -177.920414 -110.002919 5.243243 -9.909321 76.409922 6.234104 -1.991163 21.454557 0.003103 0.000014 170.139190 -16.019592 -175.739224 -47.111628 3.266555 4.694843 106.017969 -3.269704 -12.829252 21.454553 -0.003089 -0.000001 10.252834 1.805530 -0.844392 10.473688 3.680055 -1.522467 10.154996 3.670655 -1.544689 0.271863 10.091202 7.164780 -20.763677 -16.275824 15.758530 -169.690316 -70.573881 -11.983525 17.198360 59.583410 24.606294 -92.752317 -3.310219 2.698972 0.013744 2.584262 63.928395 -173.413766 73.679494 8.206922 6.302601 -57.354575 -22.190976 -96.195062 2.945571 -2.786417 -4.358586 4.355026 -31.723983 
186.325072 0.000000 539.540712 180.000000 89.096410 180.000000 -6.448000 79.976303 -0.182267 86.499093 3.182217 179.500519 148.175024 -7.824101 -177.004844 -109.648099 5.139235 -9.813072 76.827654 6.280105 -1.643028 21.454560 0.003105 0.000011 172.753188 -14.838902 -177.701824 -44.143105 3.188653 4.199377 105.255687 -3.035131 -12.366676 21.454553 -0.003089 -0.000001 10.149446 1.662784 -0.477780 10.278622 3.361404 -0.806169 9.959948 3.356342 -0.826476 0.216235 9.652034 6.707228 -20.477421 -16.210209 15.137475 -168.243814 -70.506319 -13.474663 19.874603 58.759385 27.750393 -91.381844 -3.746837 2.670549 -1.626062 1.503517 68.540230 -175.660513 74.088451 5.906992 2.762099 -58.643831 -19.713260 -97.400197 2.824499 -2.831568 -4.846322 3.780714 -32.586193 
185.613472 0.000000 537.337233 0.000000 89.568875 0.000000 -6.500192 80.861092 -0.314105 85.860790 2.276337 179.143818 145.295990 -6.470887 -176.513291 -108.203779 4.953004 -9.255836 76.579784 5.869767 -1.787896 21.454561 0.003108 0.000014 175.415369 -13.123368 -179.967997 -40.685835 3.213449 3.715035 104.057838 -2.838985 -11.579738 21.454552 -0.003096 0.000001 9.975569 1.403317 -0.052137 9.941508 2.805906 0.016568 9.622982 2.805831 -0.000398 0.075400 9.095848 6.177780 -19.966130 -15.934613 14.304606 -166.392077 -70.479010 -15.383670 22.157099 57.403391 31.288821 -90.089682 -4.342276 2.656659 -3.374944 -0.128674 67.852000 -177.656593 74.687897 3.869284 0.198569 -59.821739 -18.246466 -98.811750 2.648919 -2.882153 -5.266702 3.176066 -33.086982 
184.957531 0.000000 535.031790 0.000000 88.335439 0.000000 -6.556983 81.846497 -0.500371 85.108297 1.219388 178.661066 142.739123 -5.282393 -176.286062 -105.753307 4.702477 -8.268648 76.257668 5.066875 -2.243518 21.454562 0.003109 0.000019 177.823756 -11.087097 177.803853 -37.208097 3.343156 3.340126 101.756396 -2.804432 -10.718329 21.454551 -0.003102 0.000002 9.758276 1.080755 0.399540 9.513591 2.125030 0.886736 9.195291 2.130222 0.873868 -0.204254 8.433152 5.632667 -19.271502 -15.445873 13.333854 -164.339514 -70.473506 -17.499584 23.974906 55.678098 34.741705 -88.882104 -4.911037 2.640367 -5.208824 -2.490517 63.172951 -179.464313 75.388161 2.030015 -1.534504 -60.830380 -17.655254 -100.338203 2.449069 -2.935790 -5.618135 2.615702 -33.439847 
184.356750 0.000000 532.640189 0.000000 87.205867 0.000000 -6.602991 82.924919 -0.717322 84.297479 0.207817 178.177167 140.614133 -4.349766 -176.190544 -102.360264 4.373333 -6.990236 76.408740 4.051287 -2.723096 21.454562 0.003106 0.000022 179.758600 -8.979739 175.931826 -34.121057 3.543748 3.147700 97.814542 -3.020644 -10.014720 21.454550 -0.003097 0.000001 9.525710 0.746174 0.839766 9.050073 1.424460 1.735402 8.732024 1.434772 1.726760 -0.673599 7.681694 5.125927 -18.443313 -14.758398 12.305662 -162.311762 -70.486588 -19.589560 25.393556 53.795437 37.694473 -87.778702 -5.254522 2.613914 -7.088066 -5.531197 56.370228 178.886643 76.100390 0.357696 -2.655198 -61.598060 -17.738959 -101.882363 2.257366 -2.990884 -5.916842 2.184359 -33.856228 
183.814894 0.000000 530.183652 0.000000 86.178025 0.000000 -6.664210 84.019691 -0.953705 83.462475 -0.856636 177.753521 138.899190 -3.476495 -176.238210 -98.102682 3.894299 -6.019983 76.638990 3.329254 -2.961816 21.454563 0.003102 0.000021 -178.698717 -6.746597 174.560224 -31.434924 3.769654 3.021894 92.991160 -3.318143 -9.372600 21.454550 -0.003087 -0.000001 9.299120 0.391266 1.230446 8.593046 0.690197 2.486531 8.275245 0.705042 2.482318 -1.371955 6.868431 4.688100 -17.522162 -13.920060 11.286541 -160.501699 -70.519200 -21.454596 26.507284 51.949093 40.033281 -86.769739 -5.485076 2.586592 -8.822418 -8.775206 49.849414 177.414655 76.773165 -1.130987 -3.379181 -62.092455 -18.294891 -103.317907 2.101783 -3.043265 -6.223124 1.990124 -34.449817 
183.329976 0.000000 527.681079 0.000000 85.247092 0.000000 -6.772352 85.044116 -1.192064 82.627690 -2.081210 177.440382 137.554019 -2.478011 -176.451800 -93.078401 3.280218 -5.889737 76.542669 3.313703 -2.806066 21.454563 0.003100 0.000018 -177.441023 -4.324947 173.798919 -29.136958 3.971026 2.824467 88.221366 -3.492639 -8.634244 21.454551 -0.003081 -0.000002 9.095928 0.004137 1.540007 8.177685 -0.100399 3.076414 7.860085 -0.081974 3.076958 -2.320852 6.025893 4.339415 -16.544885 -12.991036 10.332428 -159.061901 -70.574619 -22.937348 27.399638 50.305833 41.710970 -85.827457 -5.766573 2.564765 -10.421023 -11.558300 45.663088 176.148613 77.372520 -2.408733 -3.924301 -62.303020 -19.103173 -104.509975 2.005335 -3.088923 -6.595797 2.125053 -35.278617 
182.893669 0.000000 525.149493 0.000000 84.407665 0.000000 -6.929823 85.940460 -1.408061 81.816765 -3.316525 177.284968 136.596665 -1.492495 -176.689617 -87.491956 2.630784 -6.369824 76.633396 3.749130 -2.594911 21.454562 0.003100 0.000016 -176.528206 -1.961603 173.711136 -27.513925 4.035647 2.520914 83.855365 -3.437377 -7.615081 21.454553 -0.003080 -0.000003 8.925310 -0.380779 1.763360 7.824590 -0.879684 3.497036 7.507100 -0.858697 3.502266 -3.479325 5.198393 4.079362 -15.553051 -12.041244 9.478071 -158.012532 -70.643209 -24.017212 28.046397 48.957511 42.624799 -84.883247 -6.157232 2.550080 -11.699821 -13.354746 43.899141 175.058418 77.896615 -3.506952 -4.423596 -62.276338 -19.972205 -105.318613 1.974444 -3.122317 -7.034650 2.599155 -36.274440 
